# xmcd
#
# Track frame offsets:
#	150
#	11555
#	22835
#	33595
#	41835
#	54132
#	65455
#	78467
#	88910
#	103032
#	114367
#	125440
#	138160
#	150462
#	164295
#	175795
#	185845
#	198830
#	211737
#	220650
#	232317
#	243272
#	254762
#	267100
#	277877
#
# Disc length: 3899
#
# Revision: 2
# Processed by: cddbd v1.5.1PL0 Copyright (c) Steve Scherf et al.
# Submitted via: EasyCDDAExtractor 7.0.5.1
# Normalized: r1:DSETVAR1
#
DISCID=560f3919
DTITLE=Various Artist - The Country Music Jamboree - Disc 04
DYEAR=1999
DGENRE=Country and Western
TTITLE0=Joe Maphis and Marl Travis - Corrine Corrina
TTITLE1=George Jones - Don't Let The Stars Get In your Eyes
TTITLE2=George Jones - Take These Chains From My Heart
TTITLE3=Rose Maddox - Silver Threads And Golden Needles
TTITLE4=Rose Maddox - On The Banks Of The Old Pontchartrain
TTITLE5=Merle Haggard - Stranger
TTITLE6=Merle Haggard - Swinging Doors
TTITLE7=Wanda Jackson - Making Believe
TTITLE8=Wanda Jackson - Just Call Me Lonesome
TTITLE9=Slim Whitman - I'm Casting My Lasso Toward The Sky
TTITLE10=Slim Whitman - Nord Wind
TTITLE11=Tex Ritter - High Noon
TTITLE12=Tex Ritter - Wayward Wind
TTITLE13=Ferlin Husky - The Waltz You Saved For Me
TTITLE14=Ferlin Husky - May You Never Be Alone
TTITLE15=Jean Shepard - Second Fiddle
TTITLE16=Blue Grass Gentleman - Banks Of The Ohio
TTITLE17=Blue Grass Gentleman - Pathway Of Teardrops
TTITLE18=Faron Young - Alone With You
TTITLE19=Faron Young - Country Girl
TTITLE20=Willie Nelson - Hello Walls
TTITLE21=Willie Nelson - Night Life
TTITLE22=Hagars - Silver Wings
TTITLE23=Merle Haggard - Today I Started Loving You Again
TTITLE24=Merle Haggard - Green Green Grass Of Home
EXTD=
EXTT0=
EXTT1=
EXTT2=
EXTT3=
EXTT4=
EXTT5=
EXTT6=
EXTT7=
EXTT8=
EXTT9=
EXTT10=
EXTT11=
EXTT12=
EXTT13=
EXTT14=
EXTT15=
EXTT16=
EXTT17=
EXTT18=
EXTT19=
EXTT20=
EXTT21=
EXTT22=
EXTT23=
EXTT24=
PLAYORDER=
